<svg width="38" height="34" viewBox="0 0 38 34" fill="none" xmlns="http://www.w3.org/2000/svg">
<g clip-path="url(#clip0_218_399)">
<path d="M12.0735 18.6959C10.9847 18.7049 9.89739 18.6959 8.81006 18.6959H6.27792V16.4708H6.99287C10.4048 16.4708 13.8167 16.4708 17.2287 16.4708C17.7574 16.4708 18.2177 16.3297 18.2028 15.7201C18.1879 15.1106 17.744 14.9695 17.2108 14.9695C13.3778 14.9755 9.54537 14.9755 5.7134 14.9695C5.03419 14.9695 4.71394 15.2607 4.72288 15.9589C4.73777 17.16 4.72288 18.3505 4.72288 19.5471C4.72288 21.631 4.72288 23.7134 4.72288 25.8333H1.50855C1.49366 25.6832 1.47726 25.5856 1.47726 25.4895C1.47726 20.0846 1.47726 14.6797 1.46088 9.26427C1.46088 8.79134 1.69026 8.6142 2.02242 8.41752C5.41152 6.4157 8.79516 4.40639 12.1733 2.38955C12.6098 2.12832 12.93 2.1208 13.3649 2.38204C16.9814 4.53199 20.6158 6.65191 24.2382 8.78685C24.7059 9.0631 25.1751 9.23728 25.5147 8.65925C25.8543 8.08123 25.4313 7.75842 24.9785 7.48518C21.1148 5.21812 17.2525 2.94804 13.3918 0.674969C12.9598 0.419737 12.5919 0.401747 12.154 0.664486C8.10354 3.09069 4.04863 5.50886 -0.0107422 7.91905V26.9128C0.357163 27.063 0.722093 27.3377 1.09149 27.3437C3.71151 27.3828 6.33303 27.3677 8.95454 27.3692C9.76929 27.3692 10.593 27.4233 11.3988 27.3392C11.6699 27.3107 11.9022 26.9248 12.154 26.7026C11.9386 26.4169 11.6978 26.1515 11.4346 25.9099C11.3109 25.8123 11.0517 25.8889 10.8536 25.8889H6.26599V23.6369C6.89158 23.6369 7.4576 23.6369 8.0236 23.6369C9.2152 23.6369 10.3979 23.6669 11.582 23.6038C11.8188 23.5903 12.0378 23.218 12.2657 23.0033C12.0437 22.8141 11.8442 22.5754 11.5909 22.4523C11.4092 22.3652 11.1545 22.4328 10.9311 22.4328H6.25707V19.927C6.36849 19.9075 6.48086 19.894 6.59369 19.8864C8.42279 19.8864 10.2524 19.8864 12.0825 19.8864C12.5115 19.8864 12.9225 19.8159 12.9106 19.2739C12.8987 18.7319 12.507 18.6914 12.0735 18.6959Z" fill="white"/>
<path d="M30.0312 27.4022C29.8137 27.4367 29.6082 27.6919 29.4473 27.8931C29.3822 28.028 29.3669 28.1818 29.4041 28.327C29.4965 28.9006 29.2269 29.1468 28.713 29.3509C27.0746 29.9995 25.4763 30.7097 23.8602 31.3913C23.6442 31.4814 23.4134 31.5505 23.1274 31.6555C23.1274 29.0627 23.1274 26.5734 23.1408 24.0827C23.1487 23.9816 23.1798 23.8837 23.2314 23.7967C23.2831 23.7097 23.354 23.636 23.4387 23.5812C25.375 22.7344 27.3367 21.9147 29.3892 21.0454C29.3892 21.736 29.3892 22.2825 29.3892 22.8305C29.3892 23.3515 29.5858 23.7314 30.134 23.7449C30.6821 23.7584 30.8787 23.356 30.8787 22.8365C30.8787 21.7856 30.8474 20.7436 30.8787 19.6987C30.8951 19.1597 30.6687 18.8729 30.207 18.6748C27.7984 17.6418 25.4004 16.5878 22.9859 15.5699C22.7165 15.4682 22.4197 15.4682 22.1503 15.5699C19.7135 16.5968 17.2856 17.6453 14.8666 18.7153C14.2202 19.0021 13.8344 19.5125 13.8389 20.2872C13.8518 23.2529 13.8518 26.2186 13.8389 29.1843C13.8389 29.7849 14.043 30.1407 14.6164 30.3764C17.0175 31.3613 19.3947 32.4032 21.8003 33.3791C22.1799 33.518 22.5958 33.518 22.9755 33.3791C25.3333 32.4212 27.6704 31.4123 30.0133 30.4169C30.8117 30.0776 31.2764 28.3901 30.7283 27.7024C30.642 27.6028 30.5345 27.5241 30.4138 27.4721C30.2931 27.4201 30.1623 27.3962 30.0312 27.4022ZM17.022 19.4029C18.6038 18.7168 20.199 18.0517 21.766 17.337C22.3275 17.0803 22.8086 17.0367 23.3553 17.337C23.6964 17.5307 24.0702 17.6658 24.6139 17.912L21.486 19.2528C20.9646 19.475 20.4106 19.6416 19.928 19.9299C18.7051 20.6595 17.5358 20.7061 16.371 19.7107C16.5677 19.6221 16.7911 19.5035 17.022 19.4029ZM21.6096 31.3463C21.5903 31.4465 21.5598 31.5442 21.5187 31.6375C20.5744 31.2442 19.6479 30.8613 18.7229 30.474C17.7667 30.0731 16.803 29.6888 15.8631 29.2489C15.6471 29.1483 15.3761 28.8525 15.3731 28.6483C15.3388 26.162 15.3507 23.6743 15.3507 21.0424C17.3988 21.9102 19.3307 22.7194 21.2506 23.5602C21.3482 23.6169 21.4314 23.6956 21.4937 23.7902C21.5559 23.8847 21.5956 23.9925 21.6096 24.1052C21.6319 26.5149 21.617 28.9306 21.6096 31.3463ZM20.2839 21.4117C22.3141 20.5439 24.3056 19.6867 26.3015 18.8594C26.5117 18.8051 26.7339 18.8247 26.9316 18.9149C27.4991 19.1341 28.0517 19.3924 28.7473 19.6957C27.7493 20.1236 26.8735 20.5019 25.9947 20.8742C25.2901 21.1745 24.5216 21.3682 23.8915 21.7751C22.5837 22.6308 21.4741 22.1339 20.2914 21.4117H20.2839Z" fill="white"/>
<path d="M20.3544 28.0749C19.7437 27.6815 19.0376 27.4398 18.2423 27.0825C17.9831 27.3257 17.5943 27.5254 17.5303 27.8017C17.4662 28.0779 17.6196 28.6019 17.846 28.7415C18.4116 29.0906 19.03 29.3442 19.6766 29.4922C19.9358 29.5493 20.4303 29.288 20.545 29.0418C20.6597 28.7956 20.5569 28.204 20.3544 28.0749Z" fill="white"/>
<path d="M5.66505 11.351C5.60779 11.3549 5.55035 11.3466 5.49646 11.3267C5.44258 11.3068 5.39343 11.2757 5.35224 11.2354C5.27692 11.1495 5.23696 11.0378 5.24053 10.9231H4.49578C4.49039 11.0736 4.5179 11.2234 4.57633 11.3619C4.63476 11.5005 4.72268 11.6244 4.8339 11.7249C5.04082 11.8703 5.28098 11.9603 5.53186 11.9866C5.78275 12.0128 6.03614 11.9744 6.26828 11.875C6.42179 11.8017 6.5507 11.6848 6.63917 11.5387C6.72562 11.3895 6.76944 11.219 6.76577 11.0462C6.77303 10.8647 6.72067 10.6858 6.61682 10.5373C6.51531 10.4028 6.37473 10.3036 6.21466 10.2535V10.2355C6.364 10.1813 6.49223 10.0803 6.58066 9.94745C6.66908 9.81457 6.71307 9.65667 6.7062 9.49682C6.71014 9.334 6.6663 9.17363 6.58018 9.03582C6.49407 8.898 6.36951 8.78889 6.22212 8.72213C6.04176 8.63967 5.84515 8.59962 5.64718 8.60502C5.35764 8.58912 5.07258 8.68222 4.84732 8.86625C4.74533 8.96185 4.66468 9.07822 4.61075 9.20765C4.55682 9.33708 4.53083 9.4766 4.53451 9.61694H5.27926C5.28517 9.52349 5.31892 9.43402 5.37608 9.36021C5.40687 9.32405 5.44576 9.29579 5.48953 9.27777C5.53331 9.25976 5.58071 9.25252 5.62781 9.25662C5.67269 9.2541 5.71761 9.26075 5.75985 9.27623C5.8021 9.29172 5.84078 9.31569 5.87356 9.34668C5.90459 9.38046 5.92851 9.42022 5.94387 9.46357C5.95923 9.50692 5.96572 9.55299 5.96295 9.59894C5.96761 9.65421 5.95699 9.70967 5.93227 9.75923C5.90756 9.80879 5.86971 9.85048 5.82293 9.87968C5.7084 9.93713 5.58135 9.9645 5.45353 9.95925H5.30458V10.5853H5.45353C5.60522 10.5734 5.75704 10.6068 5.88996 10.6814C5.9368 10.7181 5.97374 10.7661 5.99742 10.8209C6.0211 10.8757 6.03075 10.9356 6.02549 10.9952C6.02789 11.0439 6.02069 11.0926 6.00433 11.1384C5.98797 11.1843 5.96276 11.2264 5.93016 11.2624C5.89409 11.2943 5.85205 11.3186 5.80651 11.3338C5.76097 11.349 5.71287 11.3549 5.66505 11.351Z" fill="white"/>
<path d="M8.33681 8.60498C7.89592 8.60498 7.57669 8.75512 7.37908 9.05539C7.1622 9.42361 7.05853 9.84837 7.08118 10.276C7.08118 10.7985 7.18048 11.2084 7.37908 11.5056C7.57768 11.8029 7.89692 11.953 8.33681 11.956C8.7777 11.956 9.09746 11.8059 9.29606 11.5056C9.49466 11.2054 9.59396 10.7955 9.59396 10.276C9.59396 9.75951 9.49466 9.35266 9.29606 9.05539C9.09746 8.75812 8.7777 8.60798 8.33681 8.60498ZM8.80601 10.7775C8.78754 10.8975 8.73593 11.0099 8.65706 11.1017C8.568 11.1821 8.45264 11.2266 8.33309 11.2266C8.21353 11.2266 8.09819 11.1821 8.00913 11.1017C7.93033 11.0098 7.87873 10.8975 7.86018 10.7775C7.8338 10.6102 7.82185 10.4409 7.82444 10.2715C7.81452 10.0337 7.84782 9.79606 7.92273 9.57035C7.96225 9.49631 8.02092 9.43445 8.09252 9.39133C8.16411 9.3482 8.24595 9.32546 8.32936 9.32546C8.41276 9.32546 8.49462 9.3482 8.56622 9.39133C8.63782 9.43445 8.69649 9.49631 8.73601 9.57035C8.81091 9.79606 8.84422 10.0337 8.8343 10.2715C8.83953 10.4417 8.83007 10.612 8.80601 10.7805V10.7775Z" fill="white"/>
<path d="M12.7921 8.99991C12.5238 8.86283 12.226 8.79478 11.9252 8.80176H10.75V11.9636H11.9252C12.2254 11.9701 12.5226 11.9021 12.7906 11.7655C13.0326 11.6399 13.233 11.4457 13.3671 11.2069C13.5001 10.9524 13.5696 10.6689 13.5696 10.3812C13.5696 10.0934 13.5001 9.81003 13.3671 9.55545C13.2326 9.31824 13.0329 9.12529 12.7921 8.99991ZM12.5508 11.0583C12.4598 11.1414 12.3532 11.2053 12.2373 11.2463C12.1215 11.2873 11.9986 11.3045 11.8761 11.297H11.5141V9.45934H11.8761C11.9994 9.44694 12.1239 9.46229 12.2407 9.50431C12.3574 9.54633 12.4634 9.61398 12.5511 9.70232C12.6387 9.79066 12.7058 9.8975 12.7475 10.0152C12.7892 10.1328 12.8044 10.2584 12.7921 10.3827C12.7994 10.5063 12.7813 10.6301 12.7391 10.7463C12.6968 10.8626 12.6312 10.9688 12.5463 11.0583H12.5508Z" fill="white"/>
<path d="M16.344 11.9637V9.45033H15.5799V9.80617C15.5071 9.68675 15.4043 9.58887 15.282 9.52243C15.1389 9.4479 14.9797 9.4107 14.8187 9.4143C14.6214 9.41195 14.4276 9.46667 14.2602 9.57195C14.0893 9.68184 13.9525 9.83791 13.8654 10.0224C13.7694 10.2363 13.7197 10.4684 13.7197 10.7033C13.7197 10.9381 13.7694 11.1702 13.8654 11.3841C13.9531 11.5682 14.0898 11.7241 14.2602 11.8345C14.4256 11.941 14.618 11.9968 14.8142 11.9952C14.9752 11.9988 15.1345 11.9616 15.2775 11.8871C15.4033 11.821 15.5101 11.7232 15.5873 11.6033V11.9591L16.344 11.9637ZM15.422 11.1619C15.3726 11.2155 15.3127 11.2581 15.2459 11.2868C15.1792 11.3155 15.1072 11.3297 15.0347 11.3285C14.9621 11.3295 14.8902 11.3149 14.8237 11.2856C14.7571 11.2564 14.6976 11.2132 14.6489 11.1589C14.5397 11.0354 14.4826 10.8738 14.4895 10.7085C14.4855 10.6265 14.4974 10.5446 14.5248 10.4673C14.5521 10.39 14.5943 10.3189 14.6489 10.2581C14.6991 10.2058 14.7591 10.1643 14.8255 10.1359C14.8919 10.1075 14.9633 10.0929 15.0354 10.0929C15.1076 10.0929 15.179 10.1075 15.2454 10.1359C15.3118 10.1643 15.3718 10.2058 15.422 10.2581C15.5242 10.3873 15.5799 10.5477 15.5799 10.713C15.5799 10.8783 15.5242 11.0387 15.422 11.1679V11.1619Z" fill="white"/>
<path d="M17.747 13.1573L19.311 9.45044H18.4843L17.9123 11.0224L17.3359 9.45044H16.4824L17.4968 11.8781L16.9248 13.1573H17.747Z" fill="white"/>
<path d="M20.6817 11.3752C20.6154 11.4168 20.5378 11.4368 20.4598 11.4322C20.3654 11.4353 20.2727 11.4068 20.1961 11.3512C20.1624 11.3264 20.1343 11.2947 20.1135 11.2582C20.0927 11.2218 20.0798 11.1813 20.0755 11.1394H19.3203C19.3313 11.2988 19.3888 11.4514 19.4856 11.5779C19.591 11.7142 19.7295 11.8208 19.8878 11.8872C20.0716 11.965 20.2694 12.0034 20.4687 11.9998C20.6518 12.0035 20.8337 11.9698 21.0034 11.9006C21.144 11.8443 21.2662 11.7497 21.3565 11.6274C21.4378 11.5128 21.4806 11.375 21.4786 11.234C21.4837 11.0832 21.4357 10.9353 21.3431 10.8167C21.2607 10.7173 21.1553 10.6399 21.0362 10.5915C20.8902 10.5354 20.741 10.4883 20.5894 10.4503C20.4678 10.4266 20.3491 10.3904 20.2349 10.3422C20.2016 10.3303 20.1728 10.3083 20.1523 10.2793C20.1318 10.2503 20.1206 10.2157 20.1202 10.1801C20.1193 10.1522 20.1254 10.1245 20.1379 10.0996C20.1504 10.0746 20.1688 10.0533 20.1917 10.0375C20.2533 9.99937 20.3251 9.98152 20.3972 9.9864C20.4878 9.98207 20.5772 10.0091 20.6504 10.063C20.6822 10.088 20.7087 10.1192 20.7281 10.1549C20.7476 10.1905 20.7597 10.2297 20.7636 10.2702H21.4697C21.4521 10.0298 21.3407 9.80624 21.1598 9.64859C20.9483 9.48137 20.6834 9.39803 20.4151 9.41437C20.2277 9.40973 20.0414 9.44506 19.8685 9.51799C19.7281 9.57614 19.6071 9.67354 19.5199 9.79873C19.4414 9.91515 19.3999 10.0529 19.4008 10.1936C19.393 10.3407 19.4391 10.4854 19.5303 10.6005C19.6134 10.6987 19.7193 10.7745 19.8387 10.8212C19.9844 10.876 20.1337 10.9206 20.2855 10.9548C20.4091 10.9826 20.5302 11.0207 20.6475 11.0689C20.6758 11.0806 20.7004 11.0998 20.7189 11.1244C20.7374 11.149 20.749 11.1782 20.7525 11.2088C20.756 11.2395 20.7512 11.2705 20.7388 11.2987C20.7264 11.3269 20.7066 11.3512 20.6817 11.3692V11.3752Z" fill="white"/>
</g>
<defs>
<clipPath id="clip0_218_399">
<rect width="38" height="33" fill="white" transform="translate(0 0.470703)"/>
</clipPath>
</defs>
</svg>
