<svg width="16" height="16" viewBox="0 0 16 16" fill="none" xmlns="http://www.w3.org/2000/svg">
<path d="M2.86563 15.1783C2.78763 15.6223 3.22563 15.9693 3.61163 15.7713L8.00163 13.5153L12.3906 15.7713C12.7766 15.9693 13.2146 15.6223 13.1366 15.1793L12.3066 10.4493L15.8286 7.09329C16.1586 6.77929 15.9886 6.20529 15.5466 6.14329L10.6486 5.44729L8.46463 1.12029C8.42303 1.03258 8.35739 0.958475 8.27534 0.906585C8.19329 0.854694 8.09821 0.827148 8.00113 0.827148C7.90405 0.827148 7.80897 0.854694 7.72692 0.906585C7.64487 0.958475 7.57924 1.03258 7.53763 1.12029L5.35363 5.44829L0.45563 6.14429C0.01463 6.20629 -0.15637 6.78029 0.17263 7.09429L3.69563 10.4503L2.86563 15.1803V15.1783ZM7.77063 12.4113L4.08463 14.3053L4.77863 10.3483C4.79489 10.2572 4.78853 10.1635 4.76011 10.0755C4.73168 9.98741 4.68207 9.90769 4.61563 9.84329L1.70963 7.07329L5.76163 6.49729C5.84553 6.48462 5.92512 6.4518 5.99356 6.40164C6.06201 6.35149 6.11728 6.28548 6.15463 6.20929L7.99963 2.55129L9.84663 6.20929C9.88399 6.28548 9.93925 6.35149 10.0077 6.40164C10.0761 6.4518 10.1557 6.48462 10.2396 6.49729L14.2916 7.07229L11.3856 9.84229C11.319 9.90679 11.2693 9.98668 11.2409 10.0749C11.2125 10.1632 11.2062 10.2571 11.2226 10.3483L11.9166 14.3053L8.23063 12.4113C8.15935 12.3745 8.08032 12.3554 8.00013 12.3554C7.91994 12.3554 7.84091 12.3745 7.76963 12.4113H7.77063Z" fill="#E1A829"/>
</svg>
