<svg width="16" height="16" viewBox="0 0 16 16" fill="none" xmlns="http://www.w3.org/2000/svg">
<path d="M5.35399 5.44737L7.53799 1.12037C7.57993 1.03332 7.64547 0.959802 7.72715 0.908179C7.80883 0.856555 7.90336 0.828902 7.99999 0.828369C8.18299 0.828369 8.36599 0.925369 8.46499 1.12037L10.649 5.44737L15.547 6.14337C15.6691 6.16256 15.7808 6.22328 15.8633 6.31528C15.9459 6.40727 15.9941 6.52492 16 6.64837C16.007 6.73056 15.9953 6.81326 15.9659 6.89031C15.9364 6.96736 15.89 7.03677 15.83 7.09337L12.307 10.4494L13.137 15.1794C13.215 15.6224 12.777 15.9694 12.391 15.7714L7.99999 13.5154L3.61099 15.7714C3.56508 15.7952 3.51587 15.8121 3.46499 15.8214C3.12299 15.8814 2.79699 15.5674 2.86499 15.1794L3.69499 10.4494L0.172988 7.09337C0.118233 7.04157 0.0747109 6.97906 0.0451227 6.90974C0.0155346 6.84041 0.000511966 6.76574 0.00098751 6.69037C0.00103952 6.58381 0.0304489 6.47932 0.0859875 6.38837C0.125386 6.32244 0.179086 6.2662 0.243125 6.22379C0.307164 6.18139 0.379908 6.1539 0.455988 6.14337L5.35399 5.44737ZM7.99999 12.3554C8.08071 12.355 8.16031 12.3742 8.23199 12.4114L11.918 14.3054L11.224 10.3484C11.2076 10.2574 11.2138 10.1637 11.2421 10.0757C11.2703 9.98763 11.3197 9.90786 11.386 9.84337L14.293 7.07337L10.241 6.49737C10.1571 6.4847 10.0775 6.45188 10.0091 6.40172C9.94061 6.35156 9.88534 6.28556 9.84799 6.20937L8.00099 2.55137L7.99999 2.55437V12.3544V12.3554Z" fill="#E1A829"/>
</svg>
