<svg width="182" height="62" viewBox="0 0 182 62" fill="none" xmlns="http://www.w3.org/2000/svg">
<path d="M20.8536 11.5623H23.6767V39.2798H20.8536V26.1054H7.59368V39.2798H4.7706V11.5623H7.59368V23.7101H20.8536V11.5623ZM44.813 26.4904L44.7702 31.5805C44.7702 32.3789 44.7845 33.1203 44.813 33.8047L45.754 39.0231L45.7968 39.237H43.9148L43.7437 39.1087L42.7171 36.6278C40.0651 38.4528 37.4559 39.4081 34.8895 39.4937C33.093 39.4937 31.7099 39.0231 30.7404 38.0821C29.7994 37.1126 29.3289 35.7581 29.3289 34.0186C29.3289 31.6233 29.999 29.9978 31.3392 29.1424C32.6795 28.2869 34.5188 27.8591 36.8571 27.8591C37.1422 27.8591 38.8674 27.9447 42.0327 28.1158V25.3355C42.0327 23.4534 41.6763 22.156 40.9634 21.4431C40.279 20.7016 39.3094 20.3309 38.0547 20.3309C36.8 20.3309 34.3762 20.7159 30.7832 21.4858L30.3982 19.4327C33.9342 18.3776 36.4721 17.85 38.012 17.85C40.3503 17.85 42.2038 18.5772 43.5726 20.0315C44.3995 20.9155 44.813 23.0685 44.813 26.4904ZM42.0327 30.2545L37.5414 30.0834C35.2602 30.0834 33.7773 30.3115 33.093 30.7678C32.4086 31.224 32.0664 32.1365 32.0664 33.5053C32.0664 34.8456 32.2945 35.7723 32.7508 36.2856C33.207 36.7704 33.9912 37.0128 35.1033 37.0128C36.244 37.0128 37.57 36.7846 39.0813 36.3284C40.6212 35.8721 41.605 35.3446 42.0327 34.7457V30.2545ZM67.3689 39.2798H64.5886V24.2234C64.5601 22.8261 64.1609 21.828 63.3909 21.2292C62.6495 20.6304 61.5802 20.3309 60.1829 20.3309C58.8141 20.3309 57.5452 20.6018 56.376 21.1436C55.2354 21.6854 54.5652 22.1987 54.3656 22.6835V39.2798H51.6281V23.6673L50.9009 18.4489H52.7402L52.8685 18.5344L53.6813 20.7159C54.6793 20.0315 55.492 19.5182 56.1194 19.176C57.6877 18.235 59.3987 17.7645 61.2522 17.7645C65.2445 17.7645 67.2834 19.9175 67.3689 24.2234V39.2798ZM87.2337 36.6706C86.4923 37.469 85.5655 38.1819 84.4534 38.8093C83.3413 39.4081 82.0723 39.7075 80.6465 39.7075C79.2207 39.7075 77.9518 39.4509 76.8397 38.9376C75.7561 38.3958 74.9433 37.5973 74.4015 36.5423C73.432 34.6887 72.9472 32.2078 72.9472 29.0996C72.9472 27.132 73.1896 25.421 73.6744 23.9667C74.1592 22.4839 74.7295 21.3718 75.3853 20.6304C76.0697 19.8604 76.8397 19.2473 77.6951 18.7911C78.9213 18.1352 80.1333 17.8073 81.3309 17.8073C82.5286 17.8073 84.2538 18.3206 86.5066 19.3471V7.79817H89.1586V33.8475L90.1851 39.2798H88.4314L88.2603 39.1515L87.2337 36.6706ZM76.9252 22.3413C76.2123 23.6816 75.8559 25.8915 75.8559 28.9713C75.8559 32.051 76.141 34.1897 76.7113 35.3874C77.2817 36.585 78.6932 37.1839 80.946 37.1839C83.2272 37.1839 85.0808 36.3854 86.5066 34.7885V21.1864C85.0808 20.6161 83.3128 20.3309 81.2026 20.3309C79.0924 20.3309 77.6666 21.0011 76.9252 22.3413ZM95.9863 18.235H98.6383V39.2798H95.9863V18.235ZM95.8152 11.1773H98.8094V14.257H95.8152V11.1773ZM107.825 19.9032C108.909 19.1618 109.964 18.6342 110.99 18.3206C112.017 18.0069 113.172 17.85 114.455 17.85C115.767 17.85 117.207 18.1209 118.775 18.6628L118.433 20.5448C116.865 20.2311 115.61 20.0743 114.669 20.0743C112.216 20.0743 110.349 20.7159 109.065 21.9991C107.782 23.2538 107.141 25.5208 107.141 28.8002C107.141 34.5604 109.479 37.4405 114.156 37.4405C115.61 37.4405 117.164 36.9272 118.818 35.9006L119.973 37.6971C118.119 39.0374 115.952 39.7075 113.471 39.7075C112.188 39.7075 111.062 39.5792 110.092 39.3226C109.151 39.0659 108.21 38.5811 107.269 37.8682C105.273 36.3854 104.275 33.3627 104.275 28.8002C104.275 26.6615 104.603 24.8365 105.259 23.3251C105.914 21.7852 106.77 20.6446 107.825 19.9032ZM133.368 17.8928C133.939 17.8928 134.566 17.9784 135.25 18.1495L134.224 20.6731C133.768 20.5876 133.311 20.5448 132.855 20.5448C131.059 20.5448 129.234 21.5429 127.38 23.539V39.2798H124.728V23.7101L124.001 18.4917H125.626L125.755 18.5772L126.567 21.6142C127.822 20.388 128.963 19.4612 129.989 18.8338C131.016 18.2065 132.142 17.8928 133.368 17.8928ZM153.293 26.4904L153.251 31.5805C153.251 32.3789 153.265 33.1203 153.293 33.8047L154.234 39.0231L154.277 39.237H152.395L152.224 39.1087L151.197 36.6278C148.545 38.4528 145.936 39.4081 143.37 39.4937C141.573 39.4937 140.19 39.0231 139.221 38.0821C138.28 37.1126 137.809 35.7581 137.809 34.0186C137.809 31.6233 138.479 29.9978 139.82 29.1424C141.16 28.2869 142.999 27.8591 145.337 27.8591C145.623 27.8591 147.348 27.9447 150.513 28.1158V25.3355C150.513 23.4534 150.157 22.156 149.444 21.4431C148.759 20.7016 147.79 20.3309 146.535 20.3309C145.28 20.3309 142.857 20.7159 139.264 21.4858L138.879 19.4327C142.415 18.3776 144.952 17.85 146.492 17.85C148.831 17.85 150.684 18.5772 152.053 20.0315C152.88 20.9155 153.293 23.0685 153.293 26.4904ZM150.513 30.2545L146.022 30.0834C143.741 30.0834 142.258 30.3115 141.573 30.7678C140.889 31.224 140.547 32.1365 140.547 33.5053C140.547 34.8456 140.775 35.7723 141.231 36.2856C141.687 36.7704 142.472 37.0128 143.584 37.0128C144.724 37.0128 146.05 36.7846 147.562 36.3284C149.102 35.8721 150.085 35.3446 150.513 34.7457V30.2545ZM163.188 17.8928C163.188 18.1209 163.787 18.235 164.985 18.235C166.211 18.235 167.081 18.235 167.594 18.235C168.107 18.2065 168.435 18.1922 168.578 18.1922L168.193 20.2882H163.53C163.302 20.2882 163.188 20.3452 163.188 20.4593V42.4451L161.691 47.749L161.563 47.8773H159.595L160.536 42.4451V20.5448C160.536 20.4022 160.351 20.3309 159.98 20.3309H158.526L158.569 19.0905C159.738 18.5487 160.394 18.2493 160.536 18.1922V18.1495L160.493 14.8131C160.493 13.3303 160.793 12.0898 161.392 11.0918C161.991 10.0652 162.718 9.33803 163.573 8.91029C165.199 8.16888 166.724 7.79817 168.15 7.79817C168.236 7.79817 168.321 7.79817 168.407 7.79817L169.305 7.84095L168.834 9.93687C168.806 9.9939 168.663 10.0082 168.407 9.97964C168.178 9.92261 167.95 9.89409 167.722 9.89409C167.523 9.89409 167.18 9.97964 166.696 10.1507C166.211 10.2933 165.698 10.4929 165.156 10.7496C164.614 11.0062 164.143 11.491 163.744 12.2039C163.374 12.9168 163.188 13.7865 163.188 14.8131V17.8928ZM173.106 20.4593C173.106 20.3167 173.035 20.2454 172.893 20.2454H171.182V19.0049L173.149 18.1922L173.62 14.4281H175.801V17.85C175.887 18.0497 176.471 18.1495 177.555 18.1495H180.079L179.736 20.1598L176.143 20.2026C175.887 20.2026 175.758 20.2596 175.758 20.3737V33.8903L176.87 39.4509H174.988L174.817 39.3226L173.106 33.8903V20.4593Z" fill="#F9F4E8"/>
<path d="M168.886 50.6394C168.886 50.6394 165.458 50.9663 164.883 50.9772C148.946 51.1733 133.009 51.3694 117.072 51.5655L18.0924 52.8403C13.746 52.8948 9.39955 52.8403 5.05311 52.8403C4.30843 52.8377 3.57099 52.6936 2.87989 52.4154C2.49271 52.2608 2.16863 51.98 1.95973 51.6184C1.75083 51.2567 1.66924 50.8352 1.72809 50.4215C1.70541 50.025 1.82745 49.6338 2.07142 49.321C2.31538 49.0082 2.66457 48.7952 3.05375 48.7217C3.9298 48.473 4.83841 48.3592 5.74854 48.3839L66.6965 49.103L105.814 49.5934L164.676 50.3561C165.484 50.3561 168.886 50.6394 168.886 50.6394ZM12.4638 50.8246C12.2761 50.5987 12.0397 50.4185 11.7724 50.2977C11.5051 50.1769 11.2139 50.1186 10.9208 50.1273C9.0705 49.6771 7.14855 49.6067 5.27043 49.9202C4.89012 50.0183 4.47721 50.1709 4.44461 50.6285C4.41201 51.0861 4.80319 51.3367 5.17264 51.413C7.61518 51.7989 10.1142 51.5972 12.4638 50.8246Z" fill="white"/>
<path d="M161.341 52.6551C158.856 55.7908 155.462 58.0752 151.626 59.1926C145.161 61.2193 138.5 61.3718 131.796 61.1103C123.94 60.8052 116.333 59.0292 108.684 57.5038L93.634 54.4856C93.2319 54.4093 92.7864 54.4856 92.5474 54.1914C99.2626 53.1018 105.717 55.0958 112.226 56.4469C120.821 58.2447 129.438 59.781 138.305 59.4323C143.087 59.3918 147.833 58.5901 152.365 57.057C154.507 56.3247 156.468 55.1393 158.113 53.5812C158.517 53.1479 159.031 52.8328 159.599 52.6696C160.167 52.5065 160.77 52.5015 161.341 52.6551Z" fill="white"/>
<path d="M11.8335 46.39C14.892 44.9129 18.2208 44.0821 21.613 43.9493C29.0997 43.3827 36.5213 44.2326 43.9319 45.1261C48.5826 45.6927 53.2116 46.4227 57.8514 47.0655C58.3666 47.1108 58.8684 47.2551 59.3292 47.4905C54.1678 47.1418 49.0173 47.4905 43.8993 46.8912C37.7765 46.0491 31.6068 45.5943 25.427 45.5292C22.5067 45.521 19.5935 45.8168 16.7341 46.4118C15.1051 46.5918 13.4609 46.5845 11.8335 46.39Z" fill="white"/>
<path d="M6.10691 57.5583C6.10691 56.97 5.94392 56.4688 6.83494 56.4688C8.68217 56.545 7.6499 58.0269 7.99762 58.8114C8.06015 58.9379 8.08643 59.0793 8.07354 59.2199C8.06065 59.3605 8.00908 59.4947 7.9246 59.6077C7.84011 59.7206 7.72603 59.8079 7.59503 59.8597C7.46403 59.9115 7.32128 59.9257 7.18266 59.901C5.7592 59.6722 6.44376 58.3102 6.10691 57.5583Z" fill="white"/>
</svg>
