<svg width="32" height="41" viewBox="0 0 32 41" fill="none" xmlns="http://www.w3.org/2000/svg">
<path d="M30.8024 8.18436L15.7686 0.173589C15.5456 0.0545555 15.2783 0.0562262 15.0569 0.177766L0.439198 8.18854C0.199465 8.32009 0.0507812 8.57152 0.0507812 8.84509V19.3091C0.0595479 27.911 5.15587 35.6928 13.0371 39.139L15.0661 40.0232C15.2558 40.1058 15.4718 40.1063 15.6618 40.024L17.9481 39.0367C25.9754 35.6653 31.1979 27.8083 31.1988 19.1016V8.84509C31.1988 8.56861 31.0463 8.31426 30.8024 8.18436ZM29.7019 19.1016C29.7003 27.208 24.8366 34.5227 17.3621 37.6597L17.3571 37.6622L15.3661 38.5217L13.6361 37.767C6.29984 34.5593 1.55562 27.3161 1.54727 19.3091V9.28824L15.4216 1.68427L29.7019 9.29367V19.1016Z" fill="#F9F2E6"/>
<path d="M9.9039 18.8276C9.63533 18.5131 9.16296 18.4759 8.84846 18.7444C8.53396 19.0126 8.4968 19.4854 8.76535 19.7996L12.7189 24.4293C12.9829 24.7384 13.4453 24.7806 13.7601 24.5241L22.9679 17.0329C23.2888 16.7723 23.3371 16.3008 23.0761 15.98C22.8154 15.6596 22.3439 15.6108 22.0233 15.8718L13.3826 22.9011L9.9039 18.8276Z" fill="#F9F2E6"/>
</svg>
