<svg width="41" height="41" viewBox="0 0 41 41" fill="none" xmlns="http://www.w3.org/2000/svg">
<g clip-path="url(#clip0_1_2636)">
<mask id="mask0_1_2636" style="mask-type:luminance" maskUnits="userSpaceOnUse" x="1" y="0" width="39" height="39">
<path d="M39.8084 0.0854492H1.02051V38.8733H39.8084V0.0854492Z" fill="white"/>
</mask>
<g mask="url(#mask0_1_2636)">
</g>
<g clip-path="url(#clip1_1_2636)">
<mask id="mask1_1_2636" style="mask-type:luminance" maskUnits="userSpaceOnUse" x="1" y="0" width="40" height="40">
<path d="M40.3055 0.357727H1.51758V39.1456H40.3055V0.357727Z" fill="white"/>
</mask>
<g mask="url(#mask1_1_2636)">
<path d="M28.1842 32.6809H3.66061C2.47919 32.6809 1.51758 31.7193 1.51758 30.5379V10.8628C1.51758 10.4167 1.8796 10.0547 2.32566 10.0547H33.0327C33.4788 10.0547 33.8408 10.4167 33.8408 10.8628V17.3274C33.8408 17.7735 33.4788 18.1355 33.0327 18.1355C32.5867 18.1355 32.2246 17.7735 32.2246 17.3274V11.6708H3.13374V30.5379C3.13374 30.8288 3.3697 31.0648 3.66061 31.0648H28.1842C28.6303 31.0648 28.9923 31.4268 28.9923 31.8729C28.9923 32.3189 28.6303 32.6809 28.1842 32.6809Z" fill="#F9F2E6"/>
<path d="M33.0327 11.6709C32.7483 11.6709 32.4719 11.5206 32.3249 11.2523L27.444 2.39247C27.3034 2.13389 27.0319 1.97389 26.7362 1.97389H8.62221C8.32645 1.97389 8.05494 2.13389 7.91433 2.39247L3.03353 11.2523C2.81858 11.645 2.32403 11.7824 1.93615 11.5707C1.54504 11.3557 1.40282 10.8628 1.61777 10.4733L6.49857 1.61348C6.92362 0.837727 7.73817 0.357727 8.62221 0.357727H26.7378C27.6218 0.357727 28.4364 0.837727 28.8614 1.61187L33.7406 10.4717C33.9572 10.8628 33.815 11.3541 33.4238 11.569C33.2994 11.6385 33.1653 11.6709 33.0327 11.6709Z" fill="#F9F2E6"/>
<path d="M17.6792 11.6709C17.2331 11.6709 16.8711 11.3088 16.8711 10.8628V1.16581C16.8711 0.719747 17.2331 0.357727 17.6792 0.357727C18.1252 0.357727 18.4873 0.719747 18.4873 1.16581V10.8628C18.4873 11.3088 18.1252 11.6709 17.6792 11.6709Z" fill="#F9F2E6"/>
<path d="M39.4971 39.1456C39.0511 39.1456 38.6891 38.7836 38.6891 38.3375V35.1052C38.6891 30.2034 34.7004 26.2163 29.8002 26.2163H26.5678C26.1218 26.2163 25.7598 25.8543 25.7598 25.4082C25.7598 24.9622 26.1218 24.6002 26.5678 24.6002H29.8002C35.5925 24.6002 40.3052 29.3129 40.3052 35.1052V38.3375C40.3052 38.7836 39.9432 39.1456 39.4971 39.1456Z" fill="#F9F2E6"/>
<path d="M32.2244 31.0637C32.0386 31.0637 31.8511 30.999 31.6992 30.8681L26.0426 26.0196C25.8616 25.8677 25.7598 25.643 25.7598 25.4071C25.7598 25.1711 25.8616 24.9465 26.0426 24.7946L31.6992 19.9461C32.0369 19.6568 32.5444 19.694 32.8386 20.0333C33.1295 20.3711 33.0891 20.8818 32.7497 21.1727L27.8107 25.4071L32.7513 29.643C33.0907 29.934 33.1295 30.443 32.8402 30.7824C32.6769 30.9683 32.4523 31.0637 32.2244 31.0637Z" fill="#F9F2E6"/>
</g>
</g>
</g>
<defs>
<clipPath id="clip0_1_2636">
<rect width="40" height="40" fill="white" transform="translate(0.375 0.0854492)"/>
</clipPath>
<clipPath id="clip1_1_2636">
<rect width="38.7879" height="38.7879" fill="white" transform="translate(1.51758 0.357727)"/>
</clipPath>
</defs>
</svg>
