<svg width="41" height="41" viewBox="0 0 41 41" fill="none" xmlns="http://www.w3.org/2000/svg">
<mask id="mask0_1_2626" style="mask-type:luminance" maskUnits="userSpaceOnUse" x="0" y="0" width="41" height="41">
<path d="M40.125 0.0854492H0.125V40.0854H40.125V0.0854492Z" fill="white"/>
</mask>
<g mask="url(#mask0_1_2626)">
<path d="M4.03125 22.5203C3.60003 22.5203 3.25 22.8705 3.25 23.3017C3.25 23.7328 3.60003 24.0828 4.03125 24.0828C4.46247 24.0828 4.8125 23.7328 4.8125 23.3017C4.8125 22.8705 4.46247 22.5203 4.03125 22.5203Z" fill="#F9F2E6"/>
<path d="M36.0327 25.2296L28.6675 27.7616C28.7002 27.5802 28.7185 27.3954 28.7185 27.2077C28.7185 25.4846 27.3168 24.0827 25.5935 24.0827H20.5343C20.4 24.0827 20.2675 24.0482 20.1507 23.9822L16.0232 21.6607C15.2071 21.2009 14.2797 20.9577 13.3413 20.9577H7.80293C7.48067 20.0486 6.61213 19.3954 5.59377 19.3954H0.906252C0.474732 19.3954 0.125 19.7452 0.125 20.1767V34.2389C0.125 34.6704 0.474732 35.0202 0.906252 35.0202H5.59377C6.58893 35.0202 7.44221 34.3949 7.78096 33.5166C8.66537 33.6264 9.68861 33.8881 10.3316 34.2737L14.4173 36.7252C15.9652 37.6542 17.7373 38.1452 19.5428 38.1452C20.9735 38.1452 22.3595 37.8449 23.663 37.2529L38.2445 30.8322C39.8595 30.1771 40.657 28.2394 39.7338 26.5317C39.0548 25.2751 37.4645 24.7159 36.0327 25.2296ZM6.37502 32.6801C6.37318 33.1092 6.02315 33.4577 5.59377 33.4577H1.6875V20.9579H5.59377C6.02437 20.9579 6.37502 21.3082 6.37502 21.7392V32.6801ZM37.651 29.3872C37.6428 29.3902 37.6345 29.3939 37.6263 29.3972L23.0202 35.8286C21.9202 36.3291 20.75 36.5827 19.5428 36.5827C18.0205 36.5827 16.5264 36.1689 15.2215 35.3856L11.1354 32.9341C10.2608 32.4094 9.00838 32.0896 7.93752 31.9614V22.5204H13.3413C14.0114 22.5204 14.6737 22.6937 15.2569 23.0226L19.3843 25.3439C19.7342 25.5411 20.132 25.6454 20.5343 25.6454H25.5935C26.455 25.6454 27.156 26.3462 27.156 27.2079C27.156 28.0664 26.4547 28.7704 25.5935 28.7704H17.6517C17.22 28.7704 16.8703 29.1202 16.8703 29.5517C16.8703 29.9829 17.22 30.3327 17.6517 30.3327H25.5935C26.1058 30.3327 26.6103 30.2054 27.058 29.9667C27.058 29.9667 36.5537 26.7026 36.5573 26.7014C37.2573 26.4487 38.049 26.7002 38.3593 27.2746C38.8247 28.1354 38.4398 29.0714 37.651 29.3872Z" fill="#F9F2E6"/>
<path d="M22.8758 20.9881C23.0228 21.1154 23.205 21.1789 23.3875 21.1789C23.57 21.1789 23.7525 21.1154 23.8993 20.9881C30.2735 15.4639 34.2165 12.6682 34.2165 8.32368C34.2165 4.88678 31.7833 2.03857 28.365 2.03857C26.1202 2.03857 24.401 3.33251 23.2938 5.27436C22.1892 3.33679 20.4718 2.03857 18.2237 2.03857C15.6068 2.03857 13.419 3.73442 12.6499 6.35864C12.5285 6.77278 12.7659 7.20673 13.18 7.32819C13.5942 7.44964 14.0281 7.21222 14.1493 6.79809C14.7184 4.85596 16.3175 3.60107 18.2237 3.60107C20.4523 3.60107 22.0158 5.58014 22.541 7.42279C22.6347 7.76124 22.943 7.99561 23.2938 7.99561C23.6452 7.99561 23.953 7.76124 24.0467 7.42279C24.0575 7.38464 25.1427 3.60107 28.365 3.60107C30.81 3.60107 32.654 5.63111 32.654 8.32368C32.654 11.799 29.2567 14.3045 23.387 19.3656C19.8107 16.2943 16.9697 14.1324 15.355 12.0175C15.0932 11.6745 14.6031 11.6086 14.26 11.8704C13.917 12.1323 13.8514 12.6224 14.113 12.9657C15.933 15.3494 19.0055 17.6334 22.8758 20.9881Z" fill="#F9F2E6"/>
<path d="M13.3281 8.92664C12.8969 8.92664 12.5469 9.27667 12.5469 9.70787C12.5469 10.1391 12.8969 10.4891 13.3281 10.4891C13.7593 10.4891 14.1094 10.1391 14.1094 9.70787C14.1094 9.27667 13.7593 8.92664 13.3281 8.92664Z" fill="#F9F2E6"/>
</g>
</svg>
