<svg width="37" height="38" viewBox="0 0 37 38" fill="none" xmlns="http://www.w3.org/2000/svg">
<g clip-path="url(#clip0_218_386)">
<path d="M8.1067 37.471H7.60107C7.46887 37.3533 7.33185 37.2414 7.20737 37.116C4.92559 34.8372 2.64445 32.5569 0.36395 30.275C-0.125279 29.7849 -0.118525 29.453 0.375529 28.9542C1.18319 28.1448 1.99858 27.3441 2.7937 26.5221C2.92646 26.3771 3.00755 26.1922 3.02432 25.9963C3.05809 25.3962 3.06099 24.7933 3.04458 24.1922C3.03261 24.0201 2.96486 23.8565 2.85159 23.7263C2.36912 23.1764 1.85673 22.6467 1.35978 22.1064C1.04328 21.763 1.00372 21.5102 1.2025 21.0915C1.51611 20.4297 1.84226 19.7737 2.14332 19.1061C2.19639 18.9692 2.19639 18.8175 2.14332 18.6806C1.84708 18.0111 1.53444 17.3483 1.21311 16.6903C1.02012 16.3044 1.07801 15.9812 1.37618 15.6745C1.85866 15.1747 2.33052 14.6557 2.81879 14.1579C2.9024 14.0841 2.96448 13.9892 2.99845 13.883C3.03243 13.7769 3.03704 13.6635 3.01178 13.5549C2.89984 12.8796 2.85255 12.1937 2.75027 11.5174C2.6779 11.0398 2.85739 10.7456 3.2781 10.5304C3.8783 10.2275 4.45823 9.88405 5.0565 9.57629C5.15364 9.53389 5.23827 9.46728 5.3023 9.38282C5.36634 9.29837 5.40763 9.19889 5.42222 9.09392C5.53994 8.40798 5.67311 7.72495 5.79855 7.03998C5.88829 6.55761 6.08803 6.36465 6.57051 6.27396C7.25466 6.14951 7.9388 6.01734 8.62488 5.89868C8.72427 5.88568 8.81858 5.84711 8.89859 5.78674C8.97859 5.72637 9.04155 5.64627 9.0813 5.55427C9.41227 4.91367 9.77027 4.28756 10.1099 3.65179C10.2904 3.31413 10.5586 3.16942 10.9398 3.21958C11.678 3.31606 12.4162 3.41252 13.1592 3.48874C13.3175 3.49954 13.4741 3.45067 13.5982 3.35175C14.1106 2.89639 14.6008 2.41594 15.1006 1.94611C15.5744 1.5004 15.7433 1.47145 16.3184 1.74062C16.9283 2.03004 17.542 2.29921 18.1412 2.60311C18.228 2.65193 18.3262 2.67677 18.4257 2.67507C18.5253 2.67338 18.6226 2.64521 18.7076 2.59346C19.331 2.28281 19.9621 1.9876 20.5902 1.68853C21.036 1.47628 21.2783 1.51101 21.6363 1.84095C22.1843 2.34745 22.7257 2.86166 23.2767 3.3614C23.3793 3.45563 23.5089 3.51535 23.6472 3.53216C24.2474 3.56882 24.8495 3.59487 25.4507 3.59101C25.6228 3.58234 25.7865 3.51413 25.9139 3.39806C26.7582 2.57513 27.5871 1.7358 28.4227 0.902257C28.9901 0.33595 29.2912 0.333055 29.847 0.889715C31.0693 2.11173 32.2944 3.3376 33.5225 4.56733C34.6804 5.73339 35.8364 6.90298 36.9905 8.07612V8.58261C36.8168 8.77556 36.6538 8.98491 36.4685 9.17014C35.5093 10.1349 34.5444 11.089 33.5582 12.0702C34.0629 12.4609 34.5367 12.8256 35.0056 13.1941C35.4177 13.5154 35.4881 13.7247 35.3472 14.2254C35.1542 14.8959 34.9738 15.5664 34.7682 16.2321C34.7304 16.3308 34.7188 16.4377 34.7347 16.5422C34.7506 16.6467 34.7934 16.7453 34.8589 16.8283C35.2604 17.384 35.6386 17.9561 36.0236 18.5234C36.3508 19.0057 36.3527 19.1929 36.0333 19.6705C35.6473 20.2493 35.2449 20.8214 34.8754 21.4128C34.7851 21.5712 34.7556 21.7571 34.7924 21.9357C34.9699 22.6322 35.1783 23.323 35.3916 24.0099C35.5199 24.4218 35.4157 24.7315 35.0761 24.9901C34.5116 25.4203 33.9606 25.867 33.3951 26.2963C33.3107 26.3511 33.2418 26.4266 33.195 26.5156C33.1482 26.6046 33.125 26.7042 33.1278 26.8048C33.122 27.4897 33.0902 28.1757 33.0661 28.8606C33.0458 29.4443 32.9194 29.6218 32.3771 29.8206C31.7113 30.0627 31.0406 30.2914 30.3825 30.5499C30.2374 30.6144 30.1214 30.7306 30.0574 30.876C29.7987 31.5349 29.5691 32.2044 29.3279 32.8701C29.1349 33.4094 28.9525 33.5387 28.3629 33.559C27.6768 33.5821 26.9917 33.6139 26.3066 33.6197C26.2061 33.617 26.1065 33.6403 26.0176 33.6873C25.9287 33.7343 25.8534 33.8034 25.799 33.8879C25.3706 34.4533 24.9229 35.0051 24.4925 35.5695C24.2339 35.9081 23.9232 36.0114 23.5121 35.883C22.8251 35.6679 22.1351 35.4595 21.4384 35.281C21.2592 35.2454 21.0732 35.2767 20.9154 35.3688C20.3239 35.7374 19.7517 36.1406 19.1727 36.5265C18.7096 36.8372 18.5098 36.8401 18.0563 36.5323C17.4889 36.1464 16.9177 35.7702 16.3609 35.3746C16.2754 35.3028 16.1724 35.255 16.0623 35.236C15.9523 35.217 15.8392 35.2276 15.7346 35.2666C15.0592 35.4788 14.375 35.6573 13.6947 35.8531C13.2914 35.9689 12.972 35.8792 12.7143 35.528C12.3554 35.036 11.9723 34.5632 11.5786 34.0519C10.7912 34.8411 10.0347 35.611 9.26271 36.3673C8.89892 36.7407 8.49847 37.1025 8.1067 37.471ZM29.16 2.34262L1.86348 29.6392L7.96968 35.7451C8.03007 35.6214 8.10418 35.5049 8.19065 35.3978C11.7963 31.7845 15.4049 28.1744 19.0164 24.5675C19.1144 24.4611 19.2199 24.3618 19.332 24.2704C19.4657 24.1645 19.6336 24.1111 19.8039 24.1201C19.9743 24.1292 20.1355 24.2001 20.2573 24.3196C20.3844 24.4411 20.4634 24.6044 20.4799 24.7794C20.4964 24.9545 20.4492 25.1296 20.3471 25.2727C20.2661 25.3764 20.1767 25.4732 20.0798 25.5622C18.642 27.0016 17.2039 28.4403 15.7655 29.8784C15.6777 29.9662 15.5937 30.0588 15.4944 30.1679C19.0328 31.2609 23.7649 30.4834 27.0361 27.0064C30.3073 23.5295 30.6643 18.8909 29.6222 15.9369C29.5257 16.0199 29.4813 16.1568 29.3906 16.2475C27.9547 17.6889 26.5154 19.1267 25.0724 20.5609C24.9833 20.6579 24.8865 20.7476 24.783 20.8291C24.6398 20.9321 24.4636 20.9787 24.2881 20.9598C24.1127 20.9409 23.9505 20.858 23.8325 20.7269C23.7153 20.6035 23.6465 20.4421 23.6387 20.2722C23.6309 20.1022 23.6846 19.9352 23.79 19.8017C23.866 19.7081 23.9486 19.6201 24.037 19.5383C27.664 15.9128 31.2925 12.2888 34.9226 8.66654C35.0267 8.57925 35.1396 8.50296 35.2594 8.43886L29.16 2.34262ZM21.3979 7.97193C18.4857 7.10366 13.8713 7.59857 10.5152 10.9337C7.15913 14.2688 6.61779 18.8977 7.49975 21.8797C12.1431 17.2335 16.7575 12.6153 21.3979 7.97193ZM2.70202 16.4077C3.02142 17.0898 3.32248 17.7583 3.64574 18.4134C3.72717 18.5611 3.76988 18.7271 3.76988 18.8958C3.76988 19.0645 3.72717 19.2304 3.64574 19.3781C3.35626 19.9464 3.10537 20.5358 2.81685 21.0983C2.70975 21.3086 2.70588 21.4437 2.88729 21.6231C3.29933 22.0273 3.66697 22.4769 4.08094 22.8773C4.40998 23.1947 4.56341 23.5458 4.51516 24.0022C4.49962 24.2801 4.498 24.5586 4.51033 24.8367C5.07386 24.2675 5.5573 23.7668 6.05425 23.2825C6.21443 23.1271 6.24145 22.993 6.17777 22.776C5.57451 20.7135 5.48966 18.534 5.93075 16.4308C7.39264 9.26565 14.7735 4.66092 21.8418 6.54796C22.4265 6.70521 22.7923 6.63575 23.1657 6.18039C23.4851 5.78773 23.8759 5.45393 24.3121 5.02269C23.9772 5.02269 23.7611 5.01304 23.5459 5.02269C23.0702 5.04777 22.6977 4.87315 22.3629 4.52777C21.9035 4.05408 21.4027 3.62091 20.9154 3.16169C20.2236 3.49356 19.5414 3.81773 18.862 4.14767C18.7282 4.21822 18.5791 4.25508 18.4278 4.25508C18.2765 4.25508 18.1274 4.21822 17.9936 4.14767C17.3885 3.85824 16.7729 3.58329 16.1698 3.28614C15.9894 3.19739 15.8803 3.21765 15.7356 3.3585C15.2531 3.83123 14.7581 4.28562 14.2727 4.75256C14.163 4.86402 14.0271 4.94619 13.8774 4.99153C13.7277 5.03687 13.569 5.04393 13.4158 5.01208C12.7877 4.9156 12.1537 4.84614 11.5236 4.75545C11.2949 4.72362 11.153 4.77282 11.0411 5.0034C10.7758 5.54173 10.4525 6.05111 10.1939 6.59234C9.98932 7.02165 9.66606 7.20881 9.21639 7.2802C8.53224 7.38825 7.85388 7.532 7.18035 7.65839C7.03271 8.42247 6.88025 9.15084 6.7548 9.88309C6.73093 10.0432 6.66716 10.1947 6.56935 10.3236C6.47155 10.4526 6.34286 10.5549 6.19514 10.6211C5.62968 10.9105 5.08255 11.2405 4.5142 11.528C4.30384 11.6351 4.24498 11.7615 4.27489 11.9795C4.35884 12.5863 4.40323 13.1999 4.51709 13.8009C4.56124 13.9876 4.55443 14.1826 4.4974 14.3658C4.44037 14.5489 4.3352 14.7133 4.19287 14.8419C3.68724 15.3465 3.19993 15.8809 2.70202 16.4077ZM12.641 33.0013C12.9305 33.3795 13.2084 33.7153 13.4564 34.0693C13.6031 34.2777 13.7459 34.3356 13.9958 34.2536C14.6249 34.051 15.2676 33.8966 15.8996 33.7037C16.0361 33.6571 16.1818 33.6447 16.3241 33.6676C16.4665 33.6905 16.601 33.7479 16.716 33.8349C17.2602 34.2121 17.8179 34.5691 18.3506 34.9598C18.5667 35.118 18.7134 35.0997 18.919 34.953C19.4284 34.5903 19.9611 34.2603 20.4706 33.8986C20.6069 33.7903 20.7686 33.7186 20.9403 33.6904C21.1121 33.6622 21.2882 33.6784 21.4519 33.7374C22.055 33.9304 22.6716 34.0944 23.2776 34.2873C23.4996 34.3578 23.6356 34.3452 23.7871 34.1349C24.1663 33.6082 24.59 33.1132 24.9779 32.5913C25.0649 32.4614 25.1826 32.3551 25.3207 32.2817C25.4587 32.2083 25.6128 32.1702 25.7691 32.1707C26.3954 32.1591 27.0236 32.1224 27.646 32.1234C27.9528 32.1234 28.1168 32.0395 28.2114 31.7221C28.3832 31.1481 28.6283 30.5972 28.8135 30.026C28.8597 29.8521 28.9504 29.6932 29.0769 29.5651C29.2033 29.437 29.361 29.3442 29.5344 29.2957C30.1394 29.1028 30.7309 28.8635 31.333 28.659C31.5434 28.5866 31.6379 28.4786 31.6399 28.248C31.6476 27.5727 31.6804 26.8974 31.6959 26.222C31.6966 26.0719 31.734 25.9241 31.8048 25.7916C31.8756 25.6592 31.9776 25.546 32.1021 25.4618C32.7052 25.0055 33.2948 24.5318 33.8921 24.0649C33.6894 23.3645 33.5157 22.6776 33.288 22.008C33.2142 21.8248 33.1904 21.6252 33.2191 21.4298C33.2477 21.2344 33.3278 21.05 33.4511 20.8957C33.8129 20.4017 34.1265 19.8731 34.4865 19.3752C34.6283 19.1775 34.638 19.0395 34.4865 18.8379C34.1005 18.3024 33.7435 17.7439 33.3633 17.2026C33.272 17.0835 33.2118 16.9435 33.1878 16.7954C33.1639 16.6472 33.1771 16.4955 33.2263 16.3536C33.4192 15.7111 33.5862 15.058 33.784 14.4164C33.8486 14.2052 33.8033 14.0894 33.6296 13.964C33.2591 13.6996 32.9049 13.4121 32.5189 13.114C32.0442 13.5906 31.5868 14.0682 31.1082 14.5216C30.922 14.6981 30.8988 14.8496 30.9779 15.0889C31.6175 17.0027 31.7882 19.0421 31.4758 21.0356C31.0049 24.0369 29.6646 26.5925 27.4231 28.6571C25.2838 30.63 22.7479 31.7443 19.8588 32.0404C18.0679 32.216 16.2601 32.0149 14.5516 31.45C14.4829 31.4294 14.4106 31.424 14.3396 31.4342C14.2686 31.4443 14.2007 31.4698 14.1405 31.5089C13.6455 31.9835 13.1592 32.4833 12.6429 33.0013H12.641Z" fill="white"/>
<path d="M18.7299 19.9393C18.5929 20.056 18.4993 20.1467 18.3951 20.2239C18.2554 20.3303 18.0822 20.3831 17.9069 20.3726C17.7316 20.3622 17.5658 20.2892 17.4398 20.1669C17.306 20.0416 17.2271 19.8685 17.2202 19.6854C17.2133 19.5022 17.2791 19.3237 17.4031 19.1887C17.7003 18.8587 18.0178 18.5442 18.3459 18.2442C18.6556 17.9596 19.0329 17.9818 19.3504 18.2712C20.1658 19.0131 20.4813 20.2229 20.106 21.1655C19.6997 22.1852 18.6585 22.8547 17.5112 22.8277C16.0792 22.7949 14.9753 21.7752 14.7785 20.3049C14.6115 19.0565 15.4732 17.7686 16.7431 17.373C16.8571 17.3355 16.9744 17.3087 17.0934 17.2929C17.2641 17.2752 17.4356 17.3187 17.5773 17.4155C17.719 17.5124 17.8217 17.6564 17.8671 17.8219C17.9125 17.9874 17.8977 18.1637 17.8253 18.3193C17.7529 18.4749 17.6275 18.5997 17.4717 18.6716C17.3636 18.7198 17.242 18.7381 17.1291 18.7787C16.8724 18.87 16.6497 19.0374 16.4905 19.2585C16.3313 19.4795 16.2433 19.7438 16.238 20.0162C16.2328 20.2885 16.3106 20.556 16.4612 20.783C16.6117 21.01 16.8279 21.1858 17.0808 21.287C17.3347 21.3852 17.6126 21.4036 17.8772 21.3398C18.1419 21.276 18.3808 21.1331 18.562 20.93C18.8042 20.6522 18.8708 20.3454 18.7299 19.9393Z" fill="white"/>
<path d="M10.6525 29.7537C10.6471 30.3045 10.4787 30.8414 10.1685 31.2966C9.8582 31.7518 9.42003 32.105 8.90923 32.3114C8.39843 32.5179 7.83789 32.5685 7.29837 32.4568C6.75884 32.3451 6.26451 32.0761 5.87775 31.6838C5.49099 31.2914 5.22913 30.7934 5.12523 30.2524C5.02133 29.7114 5.08004 29.1518 5.29395 28.6442C5.50786 28.1365 5.86739 27.7036 6.32715 27.4C6.78692 27.0965 7.32631 26.9359 7.87728 26.9385C8.61844 26.9446 9.32691 27.2445 9.8472 27.7723C10.3675 28.3 10.6571 29.0126 10.6525 29.7537ZM7.85991 31.0715C8.03709 31.0757 8.21331 31.0443 8.37816 30.9792C8.54302 30.9142 8.69316 30.8168 8.81974 30.6928C8.94632 30.5687 9.04677 30.4206 9.11515 30.2572C9.18353 30.0937 9.21846 29.9182 9.21788 29.741C9.2173 29.5638 9.18122 29.3885 9.11177 29.2255C9.04232 29.0625 8.94091 28.915 8.81352 28.7918C8.68613 28.6686 8.53535 28.5722 8.37007 28.5083C8.20479 28.4443 8.02837 28.4141 7.85122 28.4194C7.67404 28.4152 7.49783 28.4466 7.33297 28.5117C7.16812 28.5767 7.01798 28.6741 6.8914 28.7981C6.76482 28.9222 6.66437 29.0703 6.59599 29.2337C6.52761 29.3972 6.49268 29.5727 6.49326 29.7499C6.49384 29.9271 6.52992 30.1024 6.59937 30.2654C6.66882 30.4284 6.77023 30.5759 6.89762 30.6991C7.025 30.8223 7.17579 30.9187 7.34107 30.9826C7.50634 31.0466 7.68277 31.0768 7.85991 31.0715Z" fill="white"/>
<path d="M23.6317 13.5721C23.2255 13.1592 22.8665 12.7916 22.5037 12.4269C22.1177 12.041 22.0646 11.6088 22.3705 11.2875C22.6919 10.9508 23.1077 10.9779 23.5092 11.3705C24.4133 12.2523 25.3194 13.1312 26.211 14.0226C26.7167 14.5281 26.5545 15.2546 25.9109 15.4061C25.7576 15.4304 25.6009 15.4248 25.4497 15.3896C24.6961 15.2604 23.9434 15.1214 23.1898 14.9864L23.1251 15.0761C23.5111 15.4466 23.8971 15.8112 24.2831 16.1904C24.4079 16.3051 24.4895 16.4592 24.5145 16.6268C24.5394 16.7945 24.5061 16.9656 24.4201 17.1117C24.3681 17.2043 24.2957 17.2838 24.2084 17.3442C24.1211 17.4046 24.0211 17.4442 23.9162 17.4601C23.8112 17.476 23.704 17.4678 23.6027 17.436C23.5014 17.4042 23.4087 17.3497 23.3316 17.2767C22.3223 16.2965 21.3313 15.298 20.3403 14.2966C20.1058 14.0583 20.0875 13.7505 20.2505 13.4621C20.4136 13.1736 20.6935 13.0414 21.0437 13.1061C21.8813 13.2604 22.7189 13.4081 23.6317 13.5721Z" fill="white"/>
<path d="M12.5707 27.1325C12.7636 27.337 12.8958 27.4605 13.0097 27.5985C13.1267 27.7376 13.1881 27.9151 13.1821 28.0968C13.176 28.2785 13.1029 28.4515 12.9769 28.5825C12.9153 28.6494 12.8411 28.7034 12.7586 28.7415C12.6761 28.7796 12.5868 28.801 12.496 28.8045C12.4051 28.8079 12.3145 28.7935 12.2293 28.7618C12.1441 28.7302 12.0659 28.6821 11.9994 28.6201C11.5825 28.2342 11.1917 27.83 10.7913 27.4306C10.2287 26.8711 9.66519 26.3115 9.10841 25.7462C8.70507 25.3371 8.70507 24.9599 9.09877 24.5518C9.3162 24.3273 9.53718 24.1064 9.76169 23.889C10.4024 23.2687 11.2622 23.1172 11.9811 23.5031C12.7 23.889 13.0029 24.5933 12.8582 25.4963C12.8505 25.5436 12.8399 25.5928 12.8235 25.668C13.2355 25.6998 13.6379 25.7288 14.0393 25.7645C14.5121 25.806 14.7804 26.0954 14.7592 26.5363C14.7389 26.9463 14.4378 27.2203 13.9872 27.2116C13.5366 27.2029 13.1014 27.1624 12.5707 27.1325ZM11.1348 25.6661C11.2424 25.4443 11.3365 25.2162 11.4166 24.983C11.4301 24.9348 11.2622 24.766 11.2168 24.7795C10.9808 24.8646 10.7501 24.9639 10.5259 25.0766L11.1348 25.6661Z" fill="white"/>
<path d="M27.0757 10.2823C27.4443 11.1004 27.7772 11.8201 28.0899 12.5485C28.1787 12.7299 28.2221 12.9302 28.2163 13.1322C28.1815 13.4785 27.9442 13.6946 27.5997 13.7448C27.4495 13.7724 27.2944 13.7484 27.1596 13.6765C27.0248 13.6047 26.9184 13.4893 26.8576 13.3492C26.7013 13.0386 26.5681 12.7163 26.4263 12.398C25.9882 11.4236 25.5504 10.4485 25.113 9.47286C24.92 9.04451 24.9596 8.70106 25.222 8.43672C25.4845 8.17238 25.8319 8.11643 26.2545 8.30648C27.5244 8.87697 28.7933 9.45067 30.0613 10.0276C30.3913 10.1771 30.5756 10.4338 30.5331 10.7994C30.4936 11.1457 30.2803 11.3869 29.9339 11.4265C29.7338 11.4343 29.535 11.3925 29.3549 11.3049C28.6148 10.9875 27.8892 10.6499 27.0757 10.2823Z" fill="white"/>
<path d="M31.5071 8.07577C31.6459 7.88944 31.7954 7.7113 31.9548 7.54226C32.0219 7.47291 32.102 7.4176 32.1907 7.37956C32.2794 7.34152 32.3747 7.32151 32.4712 7.3207C32.5676 7.31989 32.6633 7.3383 32.7526 7.37485C32.8419 7.4114 32.923 7.46536 32.9912 7.53358C33.2749 7.81625 33.2807 8.25135 32.9844 8.56972C32.664 8.9122 32.3311 9.24503 31.9905 9.56436C31.6499 9.8837 31.2639 9.89721 30.9291 9.57016C29.9525 8.60927 28.9837 7.64034 28.0226 6.66337C27.9528 6.59655 27.8972 6.51629 27.8593 6.42742C27.8213 6.33854 27.8018 6.24291 27.8018 6.14627C27.8018 6.04963 27.8213 5.954 27.8593 5.86513C27.8972 5.77625 27.9528 5.69599 28.0226 5.62917C28.3218 5.33974 28.7309 5.33974 29.0542 5.65135C29.7509 6.32668 30.434 7.02612 31.123 7.71399C31.2311 7.81432 31.3353 7.91079 31.5071 8.07577Z" fill="white"/>
<path d="M16.6708 24.734C16.4778 24.9608 16.3505 25.1952 16.1536 25.3274C15.8931 25.5029 15.593 25.4412 15.3556 25.2309C15.1182 25.0206 14.9088 24.7948 14.6879 24.5739C13.94 23.8262 13.1903 23.0805 12.4472 22.328C12.1471 22.0241 12.1105 21.6526 12.3247 21.3487C12.4226 21.2101 12.5662 21.1104 12.7302 21.067C12.8943 21.0236 13.0684 21.0393 13.2221 21.1114C13.3377 21.1751 13.4428 21.2561 13.5338 21.3516C14.4447 22.2585 15.3585 23.1634 16.2578 24.0828C16.4141 24.242 16.5049 24.4678 16.6708 24.734Z" fill="white"/>
<path d="M18.9539 14.8494C19.2058 14.9931 19.4075 15.0606 19.5445 15.1947C20.5056 16.1376 21.4589 17.0885 22.4046 18.0475C22.7308 18.3774 22.7365 18.8193 22.448 19.1087C22.1595 19.3981 21.7243 19.4145 21.3866 19.0836C20.4216 18.1285 19.4634 17.1647 18.5043 16.2029C18.2659 15.9646 18.1858 15.6588 18.3576 15.3828C18.4946 15.1735 18.7397 15.0346 18.9539 14.8494Z" fill="white"/>
<path d="M22.1262 21.8659C22.222 21.8659 22.3169 21.8853 22.405 21.923C22.4932 21.9607 22.5727 22.0158 22.639 22.085C22.7053 22.1542 22.7568 22.2361 22.7906 22.3258C22.8244 22.4155 22.8396 22.5111 22.8354 22.6068C22.8264 22.7935 22.7467 22.9697 22.6125 23.0998C22.4783 23.2298 22.2996 23.304 22.1127 23.3072C22.0169 23.308 21.922 23.2895 21.8335 23.2529C21.745 23.2162 21.6648 23.162 21.5977 23.0937C21.5306 23.0254 21.478 22.9442 21.443 22.8551C21.4079 22.766 21.3912 22.6707 21.3938 22.575C21.3914 22.4792 21.4088 22.384 21.4451 22.2953C21.4814 22.2066 21.5356 22.1265 21.6045 22.0598C21.6733 21.9932 21.7552 21.9415 21.845 21.9082C21.9348 21.8748 22.0306 21.8604 22.1262 21.8659Z" fill="white"/>
</g>
<defs>
<clipPath id="clip0_218_386">
<rect width="37" height="37" fill="white" transform="translate(0 0.470703)"/>
</clipPath>
</defs>
</svg>
